<svg xmlns="http://www.w3.org/2000/svg" version="1.1" xmlns:xlink="http://www.w3.org/1999/xlink" xmlns:svgjs="http://svgjs.dev/svgjs" width="1000" height="1000"><g clip-path="url(#SvgjsClipPath1206)"><rect width="1000" height="1000" fill="#5c402d"></rect><g transform="matrix(0.3467062902426944,0,0,0.3467062902426944,150,165.7751362060426)"><svg xmlns="http://www.w3.org/2000/svg" version="1.1" xmlns:xlink="http://www.w3.org/1999/xlink" xmlns:svgjs="http://svgjs.dev/svgjs" width="2019" height="1928"><svg width="2019" height="1928" viewBox="0 0 2019 1928" fill="none" xmlns="http://www.w3.org/2000/svg">
<rect width="2019" height="1928" fill="#5C402D"></rect>
<path d="M1009.07 325L1000.5 354.11V1198.74L1009.07 1207.29L1401.13 975.54L1009.07 325Z" fill="#A37D65"></path>
<path d="M1009.07 325L617 975.54L1009.07 1207.29V797.33V325Z" fill="#A37D65"></path>
<path d="M1009.07 1281.52L1004.24 1287.41V1588.28L1009.07 1602.38L1401.37 1049.89L1009.07 1281.52Z" fill="#A37D65"></path>
<path d="M1009.07 1602.38V1281.52L617 1049.89L1009.07 1602.38Z" fill="#A37D65"></path>
<path d="M1009.07 1207.29L1401.13 975.54L1009.07 797.33V1207.29Z" fill="#A37D65"></path>
<path d="M617 975.54L1009.07 1207.29V797.33L617 975.54Z" fill="#A37D65"></path>
</svg></svg></g></g><defs><clipPath id="SvgjsClipPath1206"><rect width="1000" height="1000" x="0" y="0" rx="200" ry="200"></rect></clipPath></defs></svg>
